# xmcd
#
# Track frame offsets: 
#        150
#        15887
#        31337
#        49607
#        70075
#        90200
#        111870
#        125542
#        143482
#        154655
#        169825
#        198775
#
# Disc length: 2961 seconds
#
# Revision: 2
# Processed by: cddbd v1.5.2PL0 Copyright (c) Steve Scherf et al.
# Submitted via: ExactAudioCopyFreeDBPlugin 1.0
#
DISCID=870b8f0c
DTITLE=John Lee Hooker - Jealous
DYEAR=1986
DGENRE=Blues
TTITLE0=Jealous
TTITLE1=Ninety Days
TTITLE2=Early One Morning
TTITLE3=When My First Wife Left Me
TTITLE4=Boogie Woman
TTITLE5=Well Well
TTITLE6=I Didn't Know
TTITLE7=We'll Meet Again
TTITLE8=Worried Life Blues
TTITLE9=Ninety Days (Reprise)
TTITLE10=Lonely Man
TTITLE11=Decoration Day
EXTD=
EXTT0=
EXTT1=
EXTT2=
EXTT3=
EXTT4=
EXTT5=
EXTT6=
EXTT7=
EXTT8=
EXTT9=
EXTT10=
EXTT11=
PLAYORDER=
